<?xml version="1.0" encoding="UTF-8" standalone="no"?>
<!-- Created with Inkscape (http://www.inkscape.org/) -->

<svg
   xmlns:dc="http://purl.org/dc/elements/1.1/"
   xmlns:cc="http://creativecommons.org/ns#"
   xmlns:rdf="http://www.w3.org/1999/02/22-rdf-syntax-ns#"
   xmlns:svg="http://www.w3.org/2000/svg"
   xmlns="http://www.w3.org/2000/svg"
   xmlns:xlink="http://www.w3.org/1999/xlink"
   xmlns:sodipodi="http://sodipodi.sourceforge.net/DTD/sodipodi-0.dtd"
   xmlns:inkscape="http://www.inkscape.org/namespaces/inkscape"
   width="391.8125"
   height="111.10296"
   id="svg2"
   version="1.1"
   inkscape:version="0.47 r22583"
   sodipodi:docname="Documento nuevo 1">
  <defs
     id="defs4">
    <linearGradient
       inkscape:collect="always"
       id="linearGradient10296">
      <stop
         style="stop-color:#afeb74;stop-opacity:1"
         offset="0"
         id="stop10298" />
      <stop
         style="stop-color:#9ce653;stop-opacity:1"
         offset="1"
         id="stop10300" />
    </linearGradient>
    <linearGradient
       inkscape:collect="always"
       id="linearGradient10288">
      <stop
         style="stop-color:#4e9a06;stop-opacity:1;"
         offset="0"
         id="stop10290" />
      <stop
         style="stop-color:#2a5203;stop-opacity:1"
         offset="1"
         id="stop10292" />
    </linearGradient>
    <inkscape:perspective
       sodipodi:type="inkscape:persp3d"
       inkscape:vp_x="0 : 526.18109 : 1"
       inkscape:vp_y="0 : 1000 : 0"
       inkscape:vp_z="744.09448 : 526.18109 : 1"
       inkscape:persp3d-origin="372.04724 : 350.78739 : 1"
       id="perspective10" />
    <linearGradient
       inkscape:collect="always"
       xlink:href="#linearGradient10288"
       id="linearGradient10294"
       x1="466.80682"
       y1="370.10605"
       x2="466.80682"
       y2="429.84375"
       gradientUnits="userSpaceOnUse" />
    <linearGradient
       inkscape:collect="always"
       xlink:href="#linearGradient10296"
       id="linearGradient10302"
       x1="374.72119"
       y1="373.9086"
       x2="374.72119"
       y2="422.79654"
       gradientUnits="userSpaceOnUse" />
  </defs>
  <sodipodi:namedview
     id="base"
     pagecolor="#ffffff"
     bordercolor="#666666"
     borderopacity="1.0"
     inkscape:pageopacity="0.0"
     inkscape:pageshadow="2"
     inkscape:zoom="1.385867"
     inkscape:cx="195.90625"
     inkscape:cy="55.551479"
     inkscape:document-units="px"
     inkscape:current-layer="layer1"
     showgrid="false"
     inkscape:window-width="1024"
     inkscape:window-height="575"
     inkscape:window-x="0"
     inkscape:window-y="25"
     inkscape:window-maximized="1" />
  <metadata
     id="metadata7">
    <rdf:RDF>
      <cc:Work
         rdf:about="">
        <dc:format>image/svg+xml</dc:format>
        <dc:type
           rdf:resource="http://purl.org/dc/dcmitype/StillImage" />
        <dc:title></dc:title>
      </cc:Work>
    </rdf:RDF>
  </metadata>
  <g
     inkscape:label="Capa 1"
     inkscape:groupmode="layer"
     id="layer1"
     transform="translate(-178.8125,-337.65244)">
    <path
       sodipodi:type="inkscape:offset"
       inkscape:radius="7.062501"
       inkscape:original="M 282.1875 373.90625 C 274.58272 373.90625 269.09375 379.27584 269.09375 386.625 C 269.09375 389.88419 270.29736 393.01892 272.40625 395 C 274.25952 396.78936 275.75411 397.4947 281.25 399.15625 C 284.95653 400.30655 286.99751 401.19485 288.53125 402.28125 C 290.64014 403.75108 291.78125 406.18674 291.78125 409.0625 C 291.78125 414.49449 287.80558 418.4375 282.4375 418.4375 C 279.43393 418.4375 276.5692 417.11029 274.84375 414.9375 C 273.50173 413.27595 272.91328 411.68966 272.59375 408.75 L 267.5625 408.75 C 268.00984 417.24946 273.81304 422.78125 282.3125 422.78125 C 290.49243 422.78125 296.5625 416.86462 296.5625 408.8125 C 296.5625 404.65863 294.84732 400.95545 291.84375 398.71875 C 289.92658 397.31282 287.95058 396.40733 283.09375 394.9375 C 278.81207 393.65939 277.40311 393.0864 276.125 392 C 274.78298 390.78579 273.875 388.67279 273.875 386.5 C 273.875 381.77098 277.33348 378.25 282.0625 378.25 C 286.85543 378.25 290.18047 381.57504 290.5 386.6875 L 295.4375 386.6875 C 295.24578 379.01881 289.92009 373.90625 282.1875 373.90625 z M 314.03125 373.90625 C 306.42647 373.90625 300.9375 379.27584 300.9375 386.625 C 300.9375 389.88419 302.14111 393.01892 304.25 395 C 306.10327 396.78936 307.56661 397.4947 313.0625 399.15625 C 316.76903 400.30655 318.81001 401.19485 320.34375 402.28125 C 322.45264 403.75108 323.59375 406.18674 323.59375 409.0625 C 323.59375 414.49449 319.64933 418.4375 314.28125 418.4375 C 311.27768 418.4375 308.41295 417.11029 306.6875 414.9375 C 305.34548 413.27595 304.75703 411.68966 304.4375 408.75 L 299.375 408.75 C 299.82234 417.24946 305.65679 422.78125 314.15625 422.78125 C 322.33618 422.78125 328.40625 416.86462 328.40625 408.8125 C 328.40625 404.65863 326.69107 400.95545 323.6875 398.71875 C 321.77033 397.31282 319.76308 396.40733 314.90625 394.9375 C 310.62457 393.65939 309.21561 393.0864 307.9375 392 C 306.59548 390.78579 305.71875 388.67279 305.71875 386.5 C 305.71875 381.77098 309.17723 378.25 313.90625 378.25 C 318.69918 378.25 322.02422 381.57504 322.34375 386.6875 L 327.25 386.6875 C 327.05828 379.01881 321.76384 373.90625 314.03125 373.90625 z M 419.03125 373.90625 C 405.48324 373.90625 394.03125 384.96183 394.03125 398.0625 C 394.03125 411.80223 405.16371 422.78125 419.03125 422.78125 C 432.70707 422.78125 443.9375 411.7313 443.9375 398.375 C 443.9375 384.89089 432.70707 373.90625 419.03125 373.90625 z M 549.1875 373.90625 C 541.58272 373.90625 536.0625 379.27584 536.0625 386.625 C 536.0625 389.88419 537.29736 393.01892 539.40625 395 C 541.25952 396.78936 542.72286 397.4947 548.21875 399.15625 C 551.92528 400.30655 553.96626 401.19485 555.5 402.28125 C 557.60889 403.75108 558.75 406.18674 558.75 409.0625 C 558.75 414.49449 554.80558 418.4375 549.4375 418.4375 C 546.43393 418.4375 543.53795 417.11029 541.8125 414.9375 C 540.47048 413.27595 539.91328 411.68966 539.59375 408.75 L 534.53125 408.75 C 534.97859 417.24946 540.81304 422.78125 549.3125 422.78125 C 557.49243 422.78125 563.5625 416.86462 563.5625 408.8125 C 563.5625 404.65863 561.81607 400.95545 558.8125 398.71875 C 556.89533 397.31282 554.91933 396.40733 550.0625 394.9375 C 545.78082 393.65939 544.37186 393.0864 543.09375 392 C 541.75173 390.78579 540.875 388.67279 540.875 386.5 C 540.875 381.77098 544.33348 378.25 549.0625 378.25 C 553.85543 378.25 557.14922 381.57504 557.46875 386.6875 L 562.40625 386.6875 C 562.21453 379.01881 556.92009 373.90625 549.1875 373.90625 z M 185.875 374.75 L 185.875 421.96875 L 190.625 421.96875 L 190.625 402.84375 L 199.6875 402.84375 C 206.07807 402.84375 209.53049 402.01514 212.40625 399.90625 C 215.47372 397.66955 217.125 393.79152 217.125 389.0625 C 217.125 383.63051 215.07872 379.32764 211.5 377.21875 C 208.56034 375.42939 205.00854 374.75 198.9375 374.75 L 185.875 374.75 z M 239.8125 374.75 L 219.5625 421.96875 L 224.53125 421.96875 L 231.4375 406.0625 L 253.4375 406.0625 L 260.25 421.96875 L 265.4375 421.96875 L 245.125 374.75 L 239.8125 374.75 z M 330.4375 374.75 L 343.9375 421.96875 L 350.0625 421.96875 L 360.40625 383.25 L 370.90625 421.96875 L 376.96875 421.96875 L 390.53125 374.75 L 385.65625 374.75 L 374.03125 415.84375 L 362.71875 374.75 L 358.25 374.75 L 346.9375 415.84375 L 335.3125 374.75 L 330.4375 374.75 z M 451.625 374.75 L 451.625 421.96875 L 456.34375 421.96875 L 456.34375 379.03125 L 463 379.03125 C 467.98465 379.03125 471.31877 379.53579 473.875 380.75 C 477.07029 382.28374 478.84375 385.46832 478.84375 389.75 C 478.84375 395.11808 476.41652 398.44064 471.6875 399.71875 C 469.4508 400.2939 466.39652 400.5625 461.15625 400.5625 L 477.0625 421.96875 L 482.9375 421.96875 L 469.71875 404.3125 C 478.79336 403.35391 483.625 398.30915 483.625 389.9375 C 483.625 383.99427 481.13246 379.52357 476.53125 377.03125 C 473.59159 375.43361 469.51135 374.75 463.3125 374.75 L 451.625 374.75 z M 490.4375 374.75 L 490.4375 421.96875 L 503.15625 421.96875 C 510.24978 421.96875 515.22113 420.86592 519.375 418.4375 C 526.53244 414.21972 530.3125 407.31899 530.3125 398.5 C 530.3125 389.6171 526.62338 382.59137 519.59375 378.4375 C 515.12035 375.75346 510.12587 374.75 501.5625 374.75 L 490.4375 374.75 z M 419.03125 378.25 C 430.02303 378.25 439.15625 387.38181 439.15625 398.4375 C 439.15625 409.36538 430.02303 418.4375 419.03125 418.4375 C 407.91165 418.4375 398.8125 409.371 398.8125 398.1875 C 398.8125 387.38743 408.10337 378.25 419.03125 378.25 z M 190.625 379.03125 L 197.3125 379.03125 C 202.74449 379.03125 206.14533 379.47891 208.0625 380.4375 C 210.81045 381.84343 212.34375 384.84472 212.34375 389.0625 C 212.34375 392.70513 210.86592 395.62673 208.4375 396.96875 C 206.45642 398.11905 203.72059 398.5625 199.375 398.5625 L 190.625 398.5625 L 190.625 379.03125 z M 495.15625 379.03125 L 501.75 379.03125 C 508.90744 379.03125 513.39003 379.92096 516.96875 382.09375 C 522.40074 385.35294 525.53125 391.28287 525.53125 398.3125 C 525.53125 404.51135 523.09559 409.95394 518.75 413.46875 C 514.97956 416.47232 510.12165 417.6875 501.75 417.6875 L 495.15625 417.6875 L 495.15625 379.03125 z M 242.5 380.09375 L 251.5625 401.78125 L 233.21875 401.78125 L 242.5 380.09375 z "
       style="font-size:63.90578461px;font-style:normal;font-variant:normal;font-weight:normal;font-stretch:normal;text-align:center;line-height:100%;writing-mode:lr-tb;text-anchor:middle;fill:url(#linearGradient10294);fill-opacity:1;stroke:none;font-family:URW Gothic L;-inkscape-font-specification:URW Gothic L Book"
       id="path9514"
       d="m 282.1875,366.84375 c -10.92924,0 -20.15625,8.91551 -20.15625,19.78125 0,4.96929 1.67398,9.86613 5.46875,13.46875 0.0193,0.0186 0.043,0.0439 0.0625,0.0625 0.5369,0.51332 1.19458,1.02948 1.875,1.53125 l -1.875,0 a 7.0632072,7.0632072 0 0 0 -2.875,0.625 L 251.625,371.96875 a 7.0632072,7.0632072 0 0 0 -6.5,-4.28125 l -5.3125,0 a 7.0632072,7.0632072 0 0 0 -6.5,4.28125 l -10.15625,23.71875 c 0.62108,-2.14439 1.03125,-4.36467 1.03125,-6.625 0,-7.16712 -2.88351,-14.21371 -9,-17.875 -0.0317,-0.0193 -0.0619,-0.0434 -0.0937,-0.0625 -4.39933,-2.64414 -9.60569,-3.4375 -16.15625,-3.4375 l -13.0625,0 a 7.0632072,7.0632072 0 0 0 -7.0625,7.0625 l 0,47.21875 a 7.0632072,7.0632072 0 0 0 7.0625,7.0625 l 4.75,0 a 7.0632072,7.0632072 0 0 0 7.0625,-7.0625 l 0,-12.0625 2,0 c 6.98258,0 12.54199,-1.11924 16.875,-4.28125 0.0115,-0.008 0.0198,-0.0229 0.0313,-0.0313 1.96083,-1.43784 3.41144,-3.32324 4.59375,-5.34375 l -8.125,18.9375 a 7.0632072,7.0632072 0 0 0 6.5,9.84375 l 4.96875,0 a 7.0632072,7.0632072 0 0 0 6.46875,-4.25 l 5.0625,-11.65625 12.71875,0 4.96875,11.625 a 7.0632072,7.0632072 0 0 0 6.5,4.28125 l 5.1875,0 a 7.0632072,7.0632072 0 0 0 5.1875,-2.3125 c 3.43511,2.0382 7.47397,3.125 11.6875,3.125 6.13069,0 11.70109,-2.66944 15.625,-6.875 0.32501,0.35825 0.58564,0.75985 0.9375,1.09375 3.98394,3.78052 9.49933,5.78125 15.28125,5.78125 9.54135,0 17.74988,-6.41899 20.375,-15.15625 l 2.625,9.21875 a 7.0632072,7.0632072 0 0 0 6.78125,5.125 l 6.125,0 a 7.0632072,7.0632072 0 0 0 6.8125,-5.25 l 3.5625,-13.40625 3.65625,13.4375 a 7.0632072,7.0632072 0 0 0 6.8125,5.21875 l 6.0625,0 a 7.0632072,7.0632072 0 0 0 6.78125,-5.125 l 4.78125,-16.59375 c 4.04074,13.00852 16.15348,22.53125 30.5,22.53125 10.4089,0 19.67139,-5.0961 25.53125,-12.8125 l 0,4.9375 a 7.0632072,7.0632072 0 0 0 7.0625,7.0625 l 4.71875,0 a 7.0632072,7.0632072 0 0 0 7.0625,-7.0625 l 0,-6.5625 8,10.78125 a 7.0632072,7.0632072 0 0 0 5.65625,2.84375 l 5.875,0 a 7.0632072,7.0632072 0 0 0 3.75,-1.09375 7.0632072,7.0632072 0 0 0 3.75,1.09375 l 12.71875,0 c 7.82553,0 14.31212,-1.30266 19.78125,-4.5 a 7.0632072,7.0632072 0 0 0 0.0313,0 c 2.72913,-1.60824 5.05826,-3.65835 7.0625,-5.96875 1.04726,2.04543 2.34101,3.92572 4,5.5 3.98394,3.78052 9.49933,5.78125 15.28125,5.78125 11.58552,0 21.3125,-9.42976 21.3125,-21.03125 0,-5.85797 -2.47331,-11.47952 -7,-15.1875 a 7.0632072,7.0632072 0 0 0 5.84375,-7.125 c -0.13548,-5.41893 -2.20924,-10.55272 -5.9375,-14.15625 -3.72826,-3.60353 -8.92095,-5.5 -14.34375,-5.5 -8.17206,0 -15.39949,4.97117 -18.53125,12.03125 -2.05326,-2.54186 -4.52384,-4.77215 -7.4375,-6.5 -0.012,-0.007 -0.0192,-0.0241 -0.0313,-0.0313 -5.7881,-3.46113 -12.5288,-4.65625 -21.625,-4.65625 l -11.125,0 a 7.0632072,7.0632072 0 0 0 -6.96875,5.84375 c -1.11074,-0.99571 -2.22853,-1.99618 -3.5625,-2.71875 -4.60606,-2.50329 -9.87566,-3.125 -16.59375,-3.125 l -11.6875,0 a 7.0632072,7.0632072 0 0 0 -7.0625,7.0625 l 0,4.90625 c -5.86412,-7.72749 -15.13574,-12.8125 -25.53125,-12.8125 -8.19717,0 -15.73134,3.18882 -21.46875,8.28125 a 7.0632072,7.0632072 0 0 0 -7.03125,-7.4375 l -4.875,0 a 7.0632072,7.0632072 0 0 0 -6.78125,5.125 l -4.75,16.78125 -4.59375,-16.71875 a 7.0632072,7.0632072 0 0 0 -6.8125,-5.1875 l -4.46875,0 a 7.0632072,7.0632072 0 0 0 -6.8125,5.1875 l -4.59375,16.71875 -4.75,-16.78125 a 7.0632072,7.0632072 0 0 0 -6.78125,-5.125 l -4.875,0 a 7.0632072,7.0632072 0 0 0 -5.15625,2.25 c -3.2808,-2.0389 -7.19756,-3.09375 -11.25,-3.09375 -6.3094,0 -11.99169,3.02255 -15.71875,7.625 -0.56029,-0.73443 -1.114,-1.48224 -1.78125,-2.125 -3.73588,-3.59874 -8.92095,-5.5 -14.34375,-5.5 z m -0.125,18.46875 c 0.76329,0 0.79253,0.10503 0.90625,0.21875 0.11372,0.11372 0.39818,0.46456 0.46875,1.59375 a 7.0632072,7.0632072 0 0 0 0.0625,0.46875 c -0.9473,-0.31667 -2.33019,-0.72739 -2.46875,-0.84375 -0.0446,-0.0888 -0.0937,-0.1826 -0.0937,-0.25 0,-1.28567 -0.0984,-1.1875 1.125,-1.1875 z m 31.84375,0 c 0.76329,0 0.79253,0.10503 0.90625,0.21875 0.11372,0.11372 0.39818,0.46456 0.46875,1.59375 a 7.0632072,7.0632072 0 0 0 0.0625,0.46875 c -0.96501,-0.32142 -2.3294,-0.72755 -2.46875,-0.84375 -0.0417,-0.0891 -0.0937,-0.16628 -0.0937,-0.25 0,-1.28567 -0.0984,-1.1875 1.125,-1.1875 z m 105.125,0 c 7.08017,0 13.0625,5.95891 13.0625,13.125 0,6.99278 -5.95677,12.9375 -13.0625,12.9375 -7.2806,0 -13.15625,-5.83481 -13.15625,-13.1875 0,-6.74968 6.16528,-12.875 13.15625,-12.875 z m 130.03125,0 c 0.76329,0 0.76883,0.11201 0.875,0.21875 0.10617,0.10674 0.39728,0.45025 0.46875,1.59375 a 7.0632072,7.0632072 0 0 0 0.0625,0.46875 c -0.93657,-0.31308 -2.29973,-0.72886 -2.4375,-0.84375 -0.0417,-0.0891 -0.0937,-0.16628 -0.0937,-0.25 0,-1.28567 -0.0984,-1.1875 1.125,-1.1875 z m -351.375,0.8125 c 4.69903,0.0482 7.40991,0.74619 7.1875,0.625 -0.002,-0.001 0.0336,0.001 0.0313,0 0.10724,0.0146 0.375,0.0413 0.375,2.3125 0,1.73244 -0.55786,1.88888 -0.25,1.71875 a 7.0632072,7.0632072 0 0 0 -0.125,0.0937 c -0.22098,0.12831 -1.66613,0.625 -5.53125,0.625 l -1.6875,0 0,-5.375 z m 265.71875,0 c 4.14061,0.0378 6.35128,0.50473 7.40625,1 0.006,0.003 0.0252,-0.003 0.0313,0 0.65684,0.31153 0.9375,0.32459 0.9375,2.625 0,1.61958 -0.31743,2.16513 -0.46875,2.375 -0.14246,0.19757 -0.38313,0.4608 -1.375,0.75 -0.0127,0.003 -0.0495,-0.003 -0.0625,0 -0.0284,0.008 -0.002,0.0232 -0.0313,0.0313 -1.01811,0.25284 -3.21554,0.44738 -6.4375,0.53125 l 0,-7.3125 z m 38.8125,0 c 6.146,0.047 9.08532,0.7806 11.09375,2 a 7.0632072,7.0632072 0 0 0 0.0313,0.0313 c 3.21772,1.93063 5.125,5.22339 5.125,10.15625 0,4.32944 -1.5682,7.53965 -4.125,9.625 -0.0115,0.009 -0.0198,0.022 -0.0313,0.0313 -2.11755,1.67481 -4.92384,2.57428 -12.09375,2.625 l 0,-24.46875 z M 279,405.84375 c 0.0615,0.0186 0.0939,0.0124 0.15625,0.0313 l 0,0.0313 c 3.42446,1.06276 4.67731,1.69721 5.28125,2.125 a 7.0632072,7.0632072 0 0 0 0.0625,0.0313 c 0.0867,0.0604 0.21875,-0.007 0.21875,1 0,1.98596 -0.37158,2.3125 -2.28125,2.3125 -0.92306,0 -1.83352,-0.5554 -2.0625,-0.84375 a 7.0632072,7.0632072 0 0 0 -0.0313,-0.0313 c -0.59551,-0.73729 -0.47038,-0.21504 -0.71875,-2.5 A 7.0632072,7.0632072 0 0 0 279,405.84375 z m 31.875,0 c 0.0387,0.0117 0.0547,0.0194 0.0937,0.0313 l 0,0.0313 c 3.42446,1.06276 4.67731,1.69721 5.28125,2.125 a 7.0632072,7.0632072 0 0 0 0.0625,0.0313 c 0.0867,0.0604 0.21875,-0.007 0.21875,1 0,2.01305 -0.34033,2.3125 -2.25,2.3125 -0.92306,0 -1.83352,-0.5554 -2.0625,-0.84375 A 7.0632072,7.0632072 0 0 0 312.1875,410.5 c -0.59551,-0.73729 -0.47038,-0.21504 -0.71875,-2.5 a 7.0632072,7.0632072 0 0 0 -0.59375,-2.15625 z m 235.15625,0 c 0.0387,0.0117 0.0547,0.0194 0.0937,0.0313 l 0,0.0313 c 3.42446,1.06276 4.67731,1.69721 5.28125,2.125 a 7.0632072,7.0632072 0 0 0 0.0625,0.0313 c 0.0867,0.0604 0.21875,-0.007 0.21875,1 0,2.01305 -0.34033,2.3125 -2.25,2.3125 -0.92306,0 -1.89059,-0.58792 -2.09375,-0.84375 A 7.0632072,7.0632072 0 0 0 547.3125,410.5 c -0.56183,-0.6956 -0.43379,-0.16586 -0.6875,-2.5 a 7.0632072,7.0632072 0 0 0 -0.59375,-2.15625 z m -62.65625,0.4375 0,4.5 -2.1875,-2.9375 c 0.76974,-0.46606 1.48836,-0.99697 2.1875,-1.5625 z" />
    <text
       xml:space="preserve"
       style="font-size:31.77923775px;font-style:normal;font-variant:normal;font-weight:normal;font-stretch:normal;text-align:center;line-height:100%;writing-mode:lr-tb;text-anchor:middle;fill:#000000;fill-opacity:1;stroke:none;font-family:Jose Fernandez;-inkscape-font-specification:Jose Fernandez"
       x="261.65298"
       y="360.6955"
       id="text9498"
       sodipodi:linespacing="100%"><tspan
         sodipodi:role="line"
         id="tspan9500"
         x="261.65298"
         y="360.6955">share your</tspan></text>
    <text
       sodipodi:linespacing="100%"
       id="text9502"
       y="421.96576"
       x="372.99722"
       style="font-size:63.90578461px;font-style:normal;font-variant:normal;font-weight:normal;font-stretch:normal;text-align:center;line-height:100%;writing-mode:lr-tb;text-anchor:middle;fill:url(#linearGradient10302);fill-opacity:1;stroke:none;font-family:URW Gothic L;-inkscape-font-specification:URW Gothic L Book"
       xml:space="preserve"><tspan
         y="421.96576"
         x="372.99722"
         id="tspan9504"
         sodipodi:role="line"
         style="fill:url(#linearGradient10302);fill-opacity:1">PASSWORDS</tspan></text>
    <text
       sodipodi:linespacing="100%"
       id="text9506"
       y="445.47415"
       x="374.03088"
       style="font-size:16px;font-style:normal;font-variant:normal;font-weight:normal;font-stretch:normal;text-align:center;line-height:100%;writing-mode:lr-tb;text-anchor:middle;fill:#888a85;fill-opacity:1;stroke:none;font-family:Jose Fernandez;-inkscape-font-specification:Jose Fernandez"
       xml:space="preserve"><tspan
         y="445.47415"
         x="374.03088"
         id="tspan9508"
         sodipodi:role="line">I don't want to register in all pages of the wold</tspan></text>
  </g>
</svg>
